<?xml version="1.0" encoding="UTF-8"?> <svg xmlns="http://www.w3.org/2000/svg" version="1.1" id="Layer_1" x="0" y="0" viewBox="0 0 100 101.2" xml:space="preserve"><style>.st0{fill:#3d3d99}.st1{fill:#4560e6}</style><circle class="st0" cx="97.9" cy="99.1" r="2.1"></circle><circle class="st0" cx="87.3" cy="99.1" r="2.1"></circle><circle class="st0" cx="76.6" cy="99.1" r="2.1"></circle><circle class="st0" cx="66" cy="99.1" r="2.1"></circle><circle class="st0" cx="55.3" cy="99.1" r="2.1"></circle><circle class="st0" cx="44.7" cy="99.1" r="2.1"></circle><circle class="st0" cx="34" cy="99.1" r="2.1"></circle><circle class="st0" cx="23.4" cy="99.1" r="2.1"></circle><circle class="st0" cx="12.7" cy="99.1" r="2.1"></circle><circle class="st0" cx="2.1" cy="99.1" r="2.1"></circle><circle class="st0" cx="97.9" cy="88.3" r="2.1"></circle><circle class="st0" cx="87.3" cy="88.3" r="2.1"></circle><circle class="st0" cx="76.6" cy="88.3" r="2.1"></circle><circle class="st1" cx="66" cy="88.3" r="2.1"></circle><circle class="st0" cx="55.3" cy="88.3" r="2.1"></circle><circle class="st0" cx="44.7" cy="88.3" r="2.1"></circle><circle class="st1" cx="34" cy="88.3" r="2.1"></circle><circle class="st0" cx="23.4" cy="88.3" r="2.1"></circle><circle class="st0" cx="12.7" cy="88.3" r="2.1"></circle><circle class="st0" cx="2.1" cy="88.3" r="2.1"></circle><circle class="st0" cx="97.9" cy="77.5" r="2.1"></circle><circle class="st0" cx="87.3" cy="77.5" r="2.1"></circle><circle class="st0" cx="76.6" cy="77.5" r="2.1"></circle><circle class="st0" cx="66" cy="77.5" r="2.1"></circle><circle class="st0" cx="55.3" cy="77.5" r="2.1"></circle><circle class="st0" cx="44.7" cy="77.5" r="2.1"></circle><circle class="st0" cx="34" cy="77.5" r="2.1"></circle><circle class="st0" cx="23.4" cy="77.5" r="2.1"></circle><circle class="st0" cx="12.7" cy="77.5" r="2.1"></circle><circle class="st0" cx="2.1" cy="77.5" r="2.1"></circle><circle class="st0" cx="97.9" cy="66.8" r="2.1"></circle><circle class="st0" cx="87.3" cy="66.8" r="2.1"></circle><circle class="st0" cx="76.6" cy="66.8" r="2.1"></circle><circle class="st0" cx="66" cy="66.8" r="2.1"></circle><circle class="st0" cx="55.3" cy="66.8" r="2.1"></circle><circle class="st0" cx="44.7" cy="66.8" r="2.1"></circle><circle class="st0" cx="34" cy="66.8" r="2.1"></circle><circle class="st0" cx="23.4" cy="66.8" r="2.1"></circle><circle class="st1" cx="12.7" cy="66.8" r="2.1"></circle><circle class="st0" cx="2.1" cy="66.8" r="2.1"></circle><circle class="st0" cx="97.9" cy="56" r="2.1"></circle><circle class="st1" cx="87.3" cy="56" r="2.1"></circle><circle class="st0" cx="76.6" cy="56" r="2.1"></circle><circle class="st0" cx="66" cy="56" r="2.1"></circle><circle class="st0" cx="55.3" cy="56" r="2.1"></circle><circle class="st0" cx="44.7" cy="56" r="2.1"></circle><circle class="st0" cx="34" cy="56" r="2.1"></circle><circle class="st0" cx="23.4" cy="56" r="2.1"></circle><circle class="st0" cx="12.7" cy="56" r="2.1"></circle><circle class="st0" cx="2.1" cy="56" r="2.1"></circle><circle class="st0" cx="97.9" cy="45.2" r="2.1"></circle><circle class="st0" cx="87.3" cy="45.2" r="2.1"></circle><circle class="st0" cx="76.6" cy="45.2" r="2.1"></circle><circle class="st0" cx="66" cy="45.2" r="2.1"></circle><circle class="st0" cx="55.3" cy="45.2" r="2.1"></circle><circle class="st0" cx="44.7" cy="45.2" r="2.1"></circle><circle class="st0" cx="34" cy="45.2" r="2.1"></circle><circle class="st0" cx="23.4" cy="45.2" r="2.1"></circle><circle class="st0" cx="12.7" cy="45.2" r="2.1"></circle><circle class="st0" cx="2.1" cy="45.2" r="2.1"></circle><circle class="st0" cx="97.9" cy="34.4" r="2.1"></circle><circle class="st0" cx="87.3" cy="34.4" r="2.1"></circle><circle class="st1" cx="76.6" cy="34.4" r="2.1"></circle><circle class="st0" cx="66" cy="34.4" r="2.1"></circle><circle class="st0" cx="55.3" cy="34.4" r="2.1"></circle><circle class="st0" cx="44.7" cy="34.4" r="2.1"></circle><circle class="st0" cx="34" cy="34.4" r="2.1"></circle><circle class="st0" cx="23.4" cy="34.4" r="2.1"></circle><circle class="st0" cx="12.7" cy="34.4" r="2.1"></circle><circle class="st0" cx="2.1" cy="34.4" r="2.1"></circle><circle class="st0" cx="97.9" cy="23.7" r="2.1"></circle><circle class="st0" cx="87.3" cy="23.7" r="2.1"></circle><circle class="st0" cx="76.6" cy="23.7" r="2.1"></circle><circle class="st0" cx="66" cy="23.7" r="2.1"></circle><circle class="st0" cx="55.3" cy="23.7" r="2.1"></circle><circle class="st0" cx="44.7" cy="23.7" r="2.1"></circle><circle class="st0" cx="34" cy="23.7" r="2.1"></circle><circle class="st1" cx="23.4" cy="23.7" r="2.1"></circle><circle class="st0" cx="12.7" cy="23.7" r="2.1"></circle><circle class="st0" cx="2.1" cy="23.7" r="2.1"></circle><circle class="st0" cx="97.9" cy="12.9" r="2.1"></circle><circle class="st0" cx="87.3" cy="12.9" r="2.1"></circle><circle class="st0" cx="76.6" cy="12.9" r="2.1"></circle><circle class="st0" cx="66" cy="12.9" r="2.1"></circle><circle class="st0" cx="55.3" cy="12.9" r="2.1"></circle><circle class="st1" cx="44.7" cy="12.9" r="2.1"></circle><circle class="st0" cx="34" cy="12.9" r="2.1"></circle><circle class="st0" cx="23.4" cy="12.9" r="2.1"></circle><circle class="st0" cx="12.7" cy="12.9" r="2.1"></circle><circle class="st0" cx="2.1" cy="12.9" r="2.1"></circle><circle class="st0" cx="97.9" cy="2.1" r="2.1"></circle><circle class="st0" cx="87.3" cy="2.1" r="2.1"></circle><circle class="st0" cx="76.6" cy="2.1" r="2.1"></circle><circle class="st0" cx="66" cy="2.1" r="2.1"></circle><circle class="st0" cx="55.3" cy="2.1" r="2.1"></circle><circle class="st0" cx="44.7" cy="2.1" r="2.1"></circle><circle class="st0" cx="34" cy="2.1" r="2.1"></circle><circle class="st0" cx="23.4" cy="2.1" r="2.1"></circle><circle class="st0" cx="12.7" cy="2.1" r="2.1"></circle><circle class="st0" cx="2.1" cy="2.1" r="2.1"></circle></svg> 